<svg xmlns="http://www.w3.org/2000/svg" viewBox="0 0 512 512" role="img" aria-label="Detroit Power System">
  <title>Detroit Power System</title>
  <defs>
    <clipPath id="dps-left">
      <rect x="-256" y="-256" width="768" height="1024"
            transform="rotate(15.0 252.95 262.10)"/>
    </clipPath>
    <clipPath id="dps-right">
      <rect x="252.95" y="-256" width="768" height="1024"
            transform="rotate(15.0 252.95 262.10)"/>
    </clipPath>
  </defs>
  <g fill-rule="evenodd">
    <path d="M 459.09,240.74 L 502.01,241.48 L 502.01,282.71 L 459.09,283.45 L 459.01,284.19 L 448.19,331.59 L 447.94,332.29 L 486.29,351.58 L 468.40,388.73 L 429.41,370.77 L 429.02,371.41 L 398.70,409.42 L 398.17,409.94 L 424.35,443.96 L 392.12,469.67 L 364.78,436.57 L 364.15,436.97 L 320.34,458.07 L 319.64,458.31 L 328.47,500.32 L 288.28,509.49 L 278.00,467.81 L 277.26,467.90 L 228.64,467.90 L 227.90,467.81 L 217.63,509.49 L 177.44,500.32 L 186.26,458.31 L 185.56,458.07 L 141.75,436.97 L 141.12,436.57 L 113.79,469.67 L 81.55,443.96 L 107.73,409.94 L 107.20,409.42 L 76.89,371.41 L 76.50,370.77 L 37.51,388.73 L 19.62,351.58 L 57.97,332.29 L 57.72,331.59 L 46.90,284.19 L 46.82,283.45 L 3.90,282.71 L 3.90,241.48 L 46.82,240.74 L 46.90,240.00 L 57.72,192.60 L 57.97,191.90 L 19.62,172.61 L 37.51,135.46 L 76.50,153.42 L 76.89,152.78 L 107.20,114.77 L 107.73,114.25 L 81.55,80.23 L 113.79,54.53 L 141.12,87.62 L 141.75,87.22 L 185.56,66.12 L 186.26,65.88 L 177.44,23.87 L 217.63,14.70 L 227.90,56.38 L 228.64,56.29 L 277.26,56.29 L 278.00,56.38 L 288.28,14.70 L 328.47,23.87 L 319.64,65.88 L 320.34,66.12 L 364.15,87.22 L 364.78,87.62 L 392.12,54.53 L 424.35,80.23 L 398.17,114.25 L 398.70,114.77 L 429.02,152.78 L 429.41,153.42 L 468.40,135.46 L 486.29,172.61 L 447.94,191.90 L 448.19,192.60 L 459.01,240.00 Z M 97.52,262.10 a 155.43,155.43 0 1,0 310.86,0 a 155.43,155.43 0 1,0 -310.86,0 Z" fill="#983128" clip-path="url(#dps-left)"/>
    <path d="M 459.09,240.74 L 502.01,241.48 L 502.01,282.71 L 459.09,283.45 L 459.01,284.19 L 448.19,331.59 L 447.94,332.29 L 486.29,351.58 L 468.40,388.73 L 429.41,370.77 L 429.02,371.41 L 398.70,409.42 L 398.17,409.94 L 424.35,443.96 L 392.12,469.67 L 364.78,436.57 L 364.15,436.97 L 320.34,458.07 L 319.64,458.31 L 328.47,500.32 L 288.28,509.49 L 278.00,467.81 L 277.26,467.90 L 228.64,467.90 L 227.90,467.81 L 217.63,509.49 L 177.44,500.32 L 186.26,458.31 L 185.56,458.07 L 141.75,436.97 L 141.12,436.57 L 113.79,469.67 L 81.55,443.96 L 107.73,409.94 L 107.20,409.42 L 76.89,371.41 L 76.50,370.77 L 37.51,388.73 L 19.62,351.58 L 57.97,332.29 L 57.72,331.59 L 46.90,284.19 L 46.82,283.45 L 3.90,282.71 L 3.90,241.48 L 46.82,240.74 L 46.90,240.00 L 57.72,192.60 L 57.97,191.90 L 19.62,172.61 L 37.51,135.46 L 76.50,153.42 L 76.89,152.78 L 107.20,114.77 L 107.73,114.25 L 81.55,80.23 L 113.79,54.53 L 141.12,87.62 L 141.75,87.22 L 185.56,66.12 L 186.26,65.88 L 177.44,23.87 L 217.63,14.70 L 227.90,56.38 L 228.64,56.29 L 277.26,56.29 L 278.00,56.38 L 288.28,14.70 L 328.47,23.87 L 319.64,65.88 L 320.34,66.12 L 364.15,87.22 L 364.78,87.62 L 392.12,54.53 L 424.35,80.23 L 398.17,114.25 L 398.70,114.77 L 429.02,152.78 L 429.41,153.42 L 468.40,135.46 L 486.29,172.61 L 447.94,191.90 L 448.19,192.60 L 459.01,240.00 Z M 97.52,262.10 a 155.43,155.43 0 1,0 310.86,0 a 155.43,155.43 0 1,0 -310.86,0 Z" fill="#676669" clip-path="url(#dps-right)"/>
  </g>
  <path d="M 109.71,301.71 L 182.86,301.71 L 414.48,70.10 L 341.33,70.10 Z" fill="#676669"/>
  <path d="M 92.95,390.10 L 163.05,390.10 L 388.57,237.71 L 318.48,237.71 Z" fill="#983128"/>
</svg>
